HIERARCHY
ROOT Hips
{
	OFFSET 0.000000 71.427986 0.000000
	CHANNELS 6 Xposition Yposition Zposition Xrotation Yrotation Zrotation
	JOINT Pelvis
	{
		OFFSET 0.000000 0.000000 0.000000
		CHANNELS 3 Xrotation Yrotation Zrotation
		JOINT LeftUpLeg
		{
			OFFSET 6.797100 -2.508499 -1.318700
			CHANNELS 3 Xrotation Yrotation Zrotation
			JOINT LeftLeg
			{
				OFFSET 0.069008 -29.241863 0.690200
				CHANNELS 3 Xrotation Yrotation Zrotation
				JOINT LeftFoot
				{
					OFFSET -0.069008 -29.568123 -0.266800
					CHANNELS 3 Xrotation Yrotation Zrotation
					JOINT LeftToeBase
					{
						OFFSET 3.145500 -8.631000 16.059900
						CHANNELS 3 Xrotation Yrotation Zrotation
						End Site
						{
							OFFSET 0.000000 18.501587 0.000000
						}
					}
				}
			}
			JOINT Left_ShortSleeve
			{
				OFFSET 0.265923 -10.480953 1.153800
				CHANNELS 3 Xrotation Yrotation Zrotation
				End Site
				{
					OFFSET 1.725763 19.823879 0.000000
				}
			}
		}
		JOINT RightUpLeg
		{
			OFFSET -6.797100 -2.508499 -1.318700
			CHANNELS 3 Xrotation Yrotation Zrotation
			JOINT RightLeg
			{
				OFFSET -0.082453 -29.241932 0.688000
				CHANNELS 3 Xrotation Yrotation Zrotation
				JOINT RightFoot
				{
					OFFSET 0.082453 -29.568058 -0.264600
					CHANNELS 3 Xrotation Yrotation Zrotation
					JOINT RightToeBase
					{
						OFFSET -3.115300 -8.682800 16.113400
						CHANNELS 3 Xrotation Yrotation Zrotation
						End Site
						{
							OFFSET 0.000000 18.567114 0.000000
						}
					}
				}
			}
			JOINT Right_ShortSleeve
			{
				OFFSET -0.265923 -10.480953 1.153800
				CHANNELS 3 Xrotation Yrotation Zrotation
				End Site
				{
					OFFSET -1.725766 19.823910 0.000000
				}
			}
		}
	}
	JOINT Spine
	{
		OFFSET 0.000000 13.368103 0.470500
		CHANNELS 3 Xrotation Yrotation Zrotation
		JOINT Spine1
		{
			OFFSET 0.147000 13.837402 0.538800
			CHANNELS 3 Xrotation Yrotation Zrotation
			JOINT Spine2
			{
				OFFSET 0.168000 16.242897 -1.435500
				CHANNELS 3 Xrotation Yrotation Zrotation
				JOINT Neck
				{
					OFFSET 0.217200 18.631500 -1.679100
					CHANNELS 3 Xrotation Yrotation Zrotation
					JOINT Head
					{
						OFFSET 0.000000 6.599396 1.385900
						CHANNELS 3 Xrotation Yrotation Zrotation
						JOINT Hat
						{
							OFFSET -0.532200 27.220596 -10.096100
							CHANNELS 3 Xrotation Yrotation Zrotation
							End Site
							{
								OFFSET 0.000000 22.029861 0.000000
							}
						}
						JOINT HairD
						{
							OFFSET -10.777400 17.437393 -1.325900
							CHANNELS 3 Xrotation Yrotation Zrotation
							JOINT HairD1
							{
								OFFSET -3.290299 -11.051193 1.062200
								CHANNELS 3 Xrotation Yrotation Zrotation
								End Site
								{
									OFFSET 0.000000 11.579437 0.000000
								}
							}
						}
						JOINT HairB
						{
							OFFSET -10.777400 17.437393 1.467900
							CHANNELS 3 Xrotation Yrotation Zrotation
							JOINT HairB1
							{
								OFFSET -1.561200 -12.956299 3.590200
								CHANNELS 3 Xrotation Yrotation Zrotation
								End Site
								{
									OFFSET 0.000000 13.534866 0.000000
								}
							}
						}
						JOINT HairA
						{
							OFFSET 9.713100 17.437393 1.467900
							CHANNELS 3 Xrotation Yrotation Zrotation
							JOINT HairA1
							{
								OFFSET 1.561200 -12.956299 3.590200
								CHANNELS 3 Xrotation Yrotation Zrotation
								End Site
								{
									OFFSET 0.000000 13.534866 0.000000
								}
							}
						}
						JOINT HairC
						{
							OFFSET 9.713100 17.437393 -1.325900
							CHANNELS 3 Xrotation Yrotation Zrotation
							JOINT HairC1
							{
								OFFSET 3.290300 -11.051193 1.062200
								CHANNELS 3 Xrotation Yrotation Zrotation
								End Site
								{
									OFFSET 0.000000 11.579437 0.000000
								}
							}
						}
					}
				}
				JOINT LeftShoulder
				{
					OFFSET 5.101800 15.108002 -2.763700
					CHANNELS 3 Xrotation Yrotation Zrotation
					JOINT LeftArm
					{
						OFFSET 9.825497 2.506317 -1.597400
						CHANNELS 3 Xrotation Yrotation Zrotation
						JOINT LeftForeArm
						{
							OFFSET 21.966244 0.000000 0.000000
							CHANNELS 3 Xrotation Yrotation Zrotation
							JOINT LeftHand
							{
								OFFSET 33.879036 0.000000 0.000000
								CHANNELS 3 Xrotation Yrotation Zrotation
								JOINT LeftHandThumb1
								{
									OFFSET 6.715286 -2.359680 3.363841
									CHANNELS 3 Xrotation Yrotation Zrotation
									JOINT LeftHandThumb2
									{
										OFFSET 2.507072 -1.447464 1.447461
										CHANNELS 3 Xrotation Yrotation Zrotation
										JOINT LeftHandThumb3
										{
											OFFSET 2.898338 -1.673355 1.673357
											CHANNELS 3 Xrotation Yrotation Zrotation
											End Site
											{
												OFFSET -0.295959 3.727692 -0.131651
											}
										}
									}
								}
								JOINT LeftHandIndex1
								{
									OFFSET 14.190811 -0.254547 3.840278
									CHANNELS 3 Xrotation Yrotation Zrotation
									JOINT LeftHandIndex2
									{
										OFFSET 3.551727 0.000000 -0.000000
										CHANNELS 3 Xrotation Yrotation Zrotation
										JOINT LeftHandIndex3
										{
											OFFSET 2.894196 0.000000 0.000000
											CHANNELS 3 Xrotation Yrotation Zrotation
											End Site
											{
												OFFSET -1.000603 2.690872 0.366626
											}
										}
									}
								}
								JOINT LeftHandMiddle1
								{
									OFFSET 13.776489 0.000000 0.000000
									CHANNELS 3 Xrotation Yrotation Zrotation
									JOINT LeftHandMiddle2
									{
										OFFSET 3.438232 0.000000 0.000000
										CHANNELS 3 Xrotation Yrotation Zrotation
										JOINT LeftHandMiddle3
										{
											OFFSET 3.691551 0.000000 0.000000
											CHANNELS 3 Xrotation Yrotation Zrotation
											End Site
											{
												OFFSET -1.082298 3.499527 0.457670
											}
										}
									}
								}
								JOINT LeftHandRing1
								{
									OFFSET 13.966164 -0.268127 -3.067488
									CHANNELS 3 Xrotation Yrotation Zrotation
									JOINT LeftHandRing2
									{
										OFFSET 3.162567 0.000000 0.000000
										CHANNELS 3 Xrotation Yrotation Zrotation
										JOINT LeftHandRing3
										{
											OFFSET 3.324348 0.000000 0.000000
											CHANNELS 3 Xrotation Yrotation Zrotation
											End Site
											{
												OFFSET -0.861900 3.184998 0.405154
											}
										}
									}
								}
								JOINT LeftHandPinky1
								{
									OFFSET 13.131393 -0.168503 -5.746925
									CHANNELS 3 Xrotation Yrotation Zrotation
									JOINT LeftHandPinky2
									{
										OFFSET 2.849182 0.000000 0.000000
										CHANNELS 3 Xrotation Yrotation Zrotation
										JOINT LeftHandPinky3
										{
											OFFSET 2.805038 0.000000 0.000000
											CHANNELS 3 Xrotation Yrotation Zrotation
											End Site
											{
												OFFSET -0.882500 2.642609 0.325652
											}
										}
									}
								}
							}
							JOINT Left_Sleeve
							{
								OFFSET 6.592125 -0.646545 0.805568
								CHANNELS 3 Xrotation Yrotation Zrotation
								End Site
								{
									OFFSET -0.000179 20.275787 -0.000000
								}
							}
						}
					}
				}
				JOINT RightShoulder
				{
					OFFSET -5.731700 15.108002 -2.763700
					CHANNELS 3 Xrotation Yrotation Zrotation
					JOINT RightArm
					{
						OFFSET -9.825497 2.506317 -1.597400
						CHANNELS 3 Xrotation Yrotation Zrotation
						JOINT RightForeArm
						{
							OFFSET -21.966242 0.000000 0.000000
							CHANNELS 3 Xrotation Yrotation Zrotation
							JOINT RightHand
							{
								OFFSET -33.879032 0.000000 0.000000
								CHANNELS 3 Xrotation Yrotation Zrotation
								JOINT RightHandThumb1
								{
									OFFSET -6.715286 -2.359680 3.363841
									CHANNELS 3 Xrotation Yrotation Zrotation
									JOINT RightHandThumb2
									{
										OFFSET -2.507072 -1.447464 1.447461
										CHANNELS 3 Xrotation Yrotation Zrotation
										JOINT RightHandThumb3
										{
											OFFSET -2.898338 -1.673355 1.673357
											CHANNELS 3 Xrotation Yrotation Zrotation
											End Site
											{
												OFFSET 0.295959 3.727692 -0.131651
											}
										}
									}
								}
								JOINT RightHandIndex1
								{
									OFFSET -14.190811 -0.254547 3.840278
									CHANNELS 3 Xrotation Yrotation Zrotation
									JOINT RightHandIndex2
									{
										OFFSET -3.551727 0.000000 -0.000000
										CHANNELS 3 Xrotation Yrotation Zrotation
										JOINT RightHandIndex3
										{
											OFFSET -2.894196 0.000000 0.000000
											CHANNELS 3 Xrotation Yrotation Zrotation
											End Site
											{
												OFFSET 1.000603 2.690872 0.366626
											}
										}
									}
								}
								JOINT RightHandMiddle1
								{
									OFFSET -13.776489 0.000000 0.000000
									CHANNELS 3 Xrotation Yrotation Zrotation
									JOINT RightHandMiddle2
									{
										OFFSET -3.438232 0.000000 0.000000
										CHANNELS 3 Xrotation Yrotation Zrotation
										JOINT RightHandMiddle3
										{
											OFFSET -3.691551 0.000000 0.000000
											CHANNELS 3 Xrotation Yrotation Zrotation
											End Site
											{
												OFFSET 1.082298 3.499527 0.457670
											}
										}
									}
								}
								JOINT RightHandRing1
								{
									OFFSET -13.966164 -0.268127 -3.067488
									CHANNELS 3 Xrotation Yrotation Zrotation
									JOINT RightHandRing2
									{
										OFFSET -3.162567 0.000000 0.000000
										CHANNELS 3 Xrotation Yrotation Zrotation
										JOINT RightHandRing3
										{
											OFFSET -3.324348 0.000000 0.000000
											CHANNELS 3 Xrotation Yrotation Zrotation
											End Site
											{
												OFFSET 0.861900 3.184998 0.405154
											}
										}
									}
								}
								JOINT RightHandPinky1
								{
									OFFSET -13.131393 -0.168503 -5.746925
									CHANNELS 3 Xrotation Yrotation Zrotation
									JOINT RightHandPinky2
									{
										OFFSET -2.849182 0.000000 0.000000
										CHANNELS 3 Xrotation Yrotation Zrotation
										JOINT RightHandPinky3
										{
											OFFSET -2.805038 0.000000 0.000000
											CHANNELS 3 Xrotation Yrotation Zrotation
											End Site
											{
												OFFSET 0.882500 2.642609 0.325652
											}
										}
									}
								}
							}
							JOINT Right_Sleeve
							{
								OFFSET -6.592125 -0.646545 0.805568
								CHANNELS 3 Xrotation Yrotation Zrotation
								End Site
								{
									OFFSET 0.000179 20.275787 -0.000000
								}
							}
						}
					}
				}
				JOINT Bind_Right_JacketString
				{
					OFFSET -3.534800 11.969597 7.200700
					CHANNELS 3 Xrotation Yrotation Zrotation
					JOINT Bind_Right_JacketString1
					{
						OFFSET -0.319900 -6.102600 2.794100
						CHANNELS 3 Xrotation Yrotation Zrotation
						End Site
						{
							OFFSET 0.000000 6.719452 0.000000
						}
					}
				}
				JOINT Bind_Left_JacketString
				{
					OFFSET 2.904800 11.969597 7.200700
					CHANNELS 3 Xrotation Yrotation Zrotation
					JOINT Bind_Left_JacketString1
					{
						OFFSET 0.364800 -5.904503 3.186800
						CHANNELS 3 Xrotation Yrotation Zrotation
						End Site
						{
							OFFSET 0.000000 6.719513 0.000000
						}
					}
				}
				JOINT HairE
				{
					OFFSET 5.915200 17.612701 -11.592200
					CHANNELS 3 Xrotation Yrotation Zrotation
					JOINT HairE1
					{
						OFFSET 0.289200 -7.171898 -1.284500
						CHANNELS 3 Xrotation Yrotation Zrotation
						End Site
						{
							OFFSET 0.000000 7.291756 0.000000
						}
					}
				}
				JOINT HairF
				{
					OFFSET -0.864800 17.612701 -11.592200
					CHANNELS 3 Xrotation Yrotation Zrotation
					JOINT HairF1
					{
						OFFSET 0.000000 -14.087097 -2.127501
						CHANNELS 3 Xrotation Yrotation Zrotation
						End Site
						{
							OFFSET 0.000000 14.246841 0.000000
						}
					}
				}
				JOINT HairG
				{
					OFFSET -8.087700 17.612701 -11.592200
					CHANNELS 3 Xrotation Yrotation Zrotation
					JOINT HairG1
					{
						OFFSET -0.293600 -6.081398 -0.910100
						CHANNELS 3 Xrotation Yrotation Zrotation
						End Site
						{
							OFFSET 0.000000 6.156120 0.000000
						}
					}
				}
			}
		}
	}
	JOINT Pouch
	{
		OFFSET 0.000000 4.394501 10.847300
		CHANNELS 3 Xrotation Yrotation Zrotation
		End Site
		{
			OFFSET 0.000000 21.880577 0.000000
		}
	}
	JOINT Bag
	{
		OFFSET -13.229000 4.813004 -0.593300
		CHANNELS 3 Xrotation Yrotation Zrotation
		End Site
		{
			OFFSET 0.000000 21.880577 0.000000
		}
	}
	JOINT OccupyGuyFacialAnim_Joint
	{
		OFFSET 1.000000 -70.206398 -1.655000
		CHANNELS 3 Xrotation Yrotation Zrotation
		End Site
		{
			OFFSET 0.000000 21.880577 0.000000
		}
	}
}
MOTION
Frames: 4
Frame Time: 0.016667
0.133110 64.348557 -1.081533 -23.093097 -5.629760 -1.714758 0.000000 0.000000 -0.000000 -87.143296 9.399735 32.154400 124.020253 -21.949045 0.092793 -33.184279 -4.680023 13.403589 0.000001 0.000000 -0.000000 -0.000000 0.000001 -0.000001 -103.909915 -6.696506 -37.814400 128.841820 25.277386 -1.601711 -28.427922 0.842701 -2.688020 0.000001 -0.000001 0.000001 0.000003 -0.000002 0.000000 7.685973 -0.996109 -0.473914 15.374076 -1.676404 -0.551058 15.374080 -1.676405 -0.551058 -11.803038 2.538409 0.513533 -20.543597 1.060038 1.922753 -0.000001 0.000000 0.000000 -0.000001 0.000000 0.000000 -0.000001 0.000000 0.000000 -0.000001 0.000000 0.000000 0.000000 0.000000 -0.000000 -0.000001 0.000000 0.000000 0.000000 0.000000 -0.000000 -0.000001 0.000000 0.000000 -0.000001 0.000000 0.000000 -0.117975 -1.799430 36.289430 -52.783237 -25.523886 -11.661704 -14.599478 -27.801856 2.187885 12.414541 -2.032442 43.220454 -11.360163 -10.015430 28.397693 19.621112 23.755260 -10.341702 -0.000000 0.000002 0.000001 -7.847174 -3.444978 -67.091227 -4.891786 2.725184 -36.316481 0.000002 0.000001 0.000000 -10.129907 -3.870848 -67.774266 -1.764496 1.724492 -28.158841 -0.000000 -0.000001 0.000002 -15.177616 7.295088 -70.201647 7.766219 -0.421193 -31.520059 -0.000001 0.000003 0.000001 -16.484522 5.444202 -74.872588 8.342030 -0.189838 -18.882676 -0.000000 0.000001 0.000001 -0.000000 0.000000 -0.000001 9.813661 24.196317 -37.946052 -46.242184 23.161320 -4.673688 -22.075469 26.224124 3.020016 0.654843 10.544270 -45.154606 15.333566 1.500887 -10.491447 -10.396765 -3.067651 -10.223936 -0.000000 -0.000001 -0.000000 0.919887 3.496397 64.452206 1.728446 9.563316 38.865962 0.000002 0.000001 -0.000001 -6.652412 -3.924350 64.485701 9.406005 5.988776 38.253642 0.000001 0.000001 -0.000001 -5.546327 1.390201 64.784802 0.228429 -1.796023 39.151604 -0.000000 0.000002 -0.000002 -17.806360 -16.572327 61.043320 25.318644 3.855947 27.748793 -0.000001 -0.000000 0.000000 -0.000000 -0.000000 0.000002 0.000001 -0.000001 0.000000 0.000001 0.000000 -0.000000 0.000001 -0.000001 0.000000 0.000001 -0.000001 0.000000 0.000001 -0.000001 0.000000 0.000001 0.000000 -0.000000 0.000001 -0.000001 0.000000 0.000001 -0.000001 0.000000 0.000001 -0.000001 0.000000 0.000001 0.000000 -0.000000 0.000000 0.000000 -0.000000 0.000000 0.000000 -0.000000 0.000000 0.000000 -0.000000 
0.117996 64.140686 -1.055269 -22.808811 -5.618211 -1.725406 0.000000 0.000000 -0.000000 -87.702163 9.161107 31.917361 124.315112 -21.707895 0.100040 -33.510896 -4.589246 13.203848 -0.000002 -0.000000 0.000000 0.000001 0.000000 -0.000002 -104.300711 -6.432090 -37.339124 129.041179 25.298491 -1.586444 -28.909964 0.702263 -2.406088 0.000001 -0.000001 0.000000 -0.000000 0.000001 -0.000001 7.635611 -0.958236 -0.431886 15.273322 -1.606446 -0.492266 15.273326 -1.606444 -0.492266 -14.761856 2.627876 0.599232 -18.644386 1.325022 1.660059 -0.000001 -0.000001 0.000000 -0.000001 -0.000001 0.000000 -0.000001 -0.000001 0.000000 -0.000001 -0.000001 -0.000000 0.000002 -0.000000 -0.000000 -0.000001 -0.000001 -0.000000 0.000002 -0.000000 -0.000000 -0.000001 -0.000001 0.000000 -0.000001 -0.000001 0.000000 -0.463119 -1.070545 36.646106 -52.830881 -25.294858 -12.145897 -14.734627 -28.465339 2.458207 11.791894 -2.162980 40.907588 -11.360189 -10.015431 28.397703 19.621122 23.755261 -10.341694 -0.000000 0.000001 -0.000000 -7.847183 -3.444998 -67.091220 -4.891822 2.725195 -36.316485 0.000001 0.000001 -0.000000 -10.129908 -3.870874 -67.774273 -1.764535 1.724329 -28.158835 0.000002 -0.000001 0.000001 -15.177626 7.295044 -70.201661 7.766215 -0.421205 -31.520063 -0.000000 0.000003 -0.000000 -16.484513 5.444118 -74.872588 8.341958 -0.189787 -18.882680 0.000001 0.000001 0.000001 -0.000000 0.000000 0.000001 9.574051 23.264854 -38.203430 -46.458175 23.286051 -4.045072 -21.711694 26.550176 2.475560 0.014066 10.416153 -45.533333 15.333565 1.500885 -10.491454 -10.396767 -3.067653 -10.223936 -0.000000 -0.000001 -0.000002 0.919901 3.496411 64.452199 1.728494 9.563382 38.865962 -0.000001 -0.000001 -0.000002 -6.652419 -3.924353 64.485694 9.406022 5.988760 38.253632 0.000001 0.000000 -0.000002 -5.546348 1.390198 64.784795 0.228519 -1.795965 39.151621 -0.000000 0.000001 -0.000000 -17.806354 -16.572324 61.043299 25.318818 3.856014 27.748769 -0.000001 0.000003 0.000001 0.000000 -0.000000 -0.000002 0.000000 -0.000000 -0.000000 0.000000 -0.000001 0.000000 0.000000 -0.000000 -0.000000 0.000000 -0.000000 -0.000000 0.000000 -0.000000 -0.000000 0.000000 -0.000001 0.000000 0.000000 -0.000000 -0.000000 0.000000 -0.000000 -0.000000 0.000000 -0.000000 -0.000000 0.000000 -0.000001 0.000000 0.000000 0.000000 -0.000000 0.000000 0.000000 -0.000000 0.000000 0.000000 -0.000000 
0.102135 64.001205 -1.053164 -22.411398 -5.592427 -1.751464 0.000001 0.000000 0.000000 -88.334925 8.940572 31.629025 124.515209 -21.349365 0.115940 -33.641055 -4.494768 13.046243 0.000000 -0.000000 0.000001 -0.000002 0.000001 -0.000001 -104.720768 -6.234297 -36.783878 129.135846 25.132576 -1.567403 -29.219587 0.567998 -2.166169 0.000002 0.000001 0.000001 -0.000002 -0.000000 0.000001 7.518743 -0.919213 -0.381194 15.039633 -1.534573 -0.418301 15.039639 -1.534572 -0.418301 -17.769910 2.710622 0.790330 -16.597916 1.605600 1.335111 -0.000001 -0.000000 -0.000000 -0.000001 -0.000000 -0.000000 -0.000001 -0.000000 0.000000 -0.000001 -0.000000 -0.000000 -0.000001 0.000000 0.000000 -0.000001 -0.000000 -0.000000 -0.000001 0.000000 0.000000 -0.000001 -0.000000 -0.000000 -0.000001 -0.000000 -0.000000 -0.794090 -0.411283 37.037650 -53.107357 -25.119619 -13.105112 -14.758166 -28.996694 2.732923 11.472774 -2.333842 38.824636 -11.360181 -10.015430 28.397707 19.621120 23.755260 -10.341709 -0.000000 -0.000002 0.000000 -7.847211 -3.444989 -67.091207 -4.891841 2.725254 -36.316488 0.000002 0.000001 0.000002 -10.129897 -3.870895 -67.774273 -1.764548 1.724204 -28.158828 -0.000000 0.000001 -0.000001 -15.177590 7.295013 -70.201647 7.766217 -0.421200 -31.520059 -0.000001 0.000002 -0.000000 -16.484482 5.444042 -74.872581 8.341896 -0.189703 -18.882690 -0.000000 -0.000002 0.000001 0.000000 0.000000 -0.000001 9.273469 22.311033 -38.387907 -46.870899 23.501708 -2.942161 -21.212577 27.007437 1.920308 -0.431583 10.106989 -45.634843 15.333566 1.500895 -10.491449 -10.396768 -3.067651 -10.223934 0.000000 -0.000001 -0.000001 0.919898 3.496447 64.452192 1.728548 9.563419 38.865948 0.000000 -0.000004 -0.000000 -6.652414 -3.924341 64.485681 9.406001 5.988790 38.253639 -0.000001 0.000000 -0.000003 -5.546338 1.390201 64.784788 0.228582 -1.795854 39.151614 -0.000000 0.000001 -0.000002 -17.806361 -16.572322 61.043293 25.318975 3.856103 27.748765 -0.000002 0.000002 0.000003 -0.000000 0.000000 0.000001 -0.000001 -0.000001 0.000000 0.000001 -0.000001 0.000000 -0.000001 -0.000001 -0.000000 -0.000001 -0.000001 -0.000000 -0.000001 -0.000001 0.000000 0.000001 -0.000001 0.000000 -0.000001 -0.000001 -0.000000 -0.000001 -0.000001 -0.000000 -0.000001 -0.000001 0.000000 0.000001 -0.000001 0.000000 0.000001 0.000000 0.000000 0.000001 0.000000 0.000000 0.000001 0.000000 0.000000 
0.085606 63.916977 -1.068487 -21.941276 -5.565581 -1.793497 0.000002 0.000000 0.000000 -89.022821 8.733623 31.313395 124.639642 -20.888004 0.141344 -33.568645 -4.387893 12.910790 0.000000 -0.000000 0.000001 0.000001 -0.000003 -0.000003 -105.169921 -6.101458 -36.166623 129.155107 24.796783 -1.554909 -29.355098 0.439235 -1.949556 0.000000 0.000000 -0.000000 -0.000001 -0.000002 -0.000001 7.354358 -0.880083 -0.323235 14.710904 -1.463379 -0.331661 14.710908 -1.463383 -0.331660 -20.744668 2.780006 1.039820 -14.458341 1.885081 0.975407 -0.000002 -0.000000 -0.000000 -0.000002 -0.000000 -0.000000 -0.000002 -0.000000 -0.000000 -0.000002 -0.000000 -0.000000 -0.000000 -0.000000 -0.000000 -0.000002 -0.000000 -0.000000 -0.000000 -0.000000 -0.000000 -0.000002 -0.000000 -0.000000 -0.000002 -0.000000 -0.000000 -1.099289 0.158975 37.454193 -53.530484 -24.931229 -14.399207 -14.700109 -29.457926 3.027298 11.402005 -2.529846 36.882694 -11.360175 -10.015410 28.397683 19.621110 23.755244 -10.341700 -0.000000 0.000001 -0.000001 -7.847202 -3.444969 -67.091227 -4.891876 2.725251 -36.316478 0.000001 0.000000 0.000002 -10.129888 -3.870916 -67.774280 -1.764572 1.724055 -28.158814 0.000002 0.000001 -0.000001 -15.177601 7.294984 -70.201647 7.766220 -0.421191 -31.520080 -0.000002 0.000002 -0.000001 -16.484457 5.443965 -74.872602 8.341829 -0.189613 -18.882695 -0.000000 -0.000001 -0.000001 -0.000000 0.000000 -0.000001 8.958982 21.389437 -38.537129 -47.400843 23.753709 -1.536022 -20.640010 27.551665 1.343277 -0.735304 9.715909 -45.379026 15.333566 1.500903 -10.491473 -10.396766 -3.067651 -10.223937 -0.000001 0.000000 0.000002 0.919922 3.496450 64.452179 1.728597 9.563463 38.865931 0.000001 0.000001 -0.000001 -6.652414 -3.924333 64.485701 9.406002 5.988776 38.253642 0.000001 0.000001 -0.000001 -5.546342 1.390202 64.784775 0.228680 -1.795804 39.151624 0.000002 -0.000001 -0.000002 -17.806365 -16.572307 61.043299 25.319137 3.856166 27.748755 -0.000003 0.000003 0.000001 -0.000001 0.000000 -0.000004 0.000001 -0.000001 0.000000 0.000001 -0.000001 -0.000000 0.000001 -0.000001 -0.000000 0.000001 -0.000001 -0.000000 0.000001 -0.000001 0.000000 0.000001 -0.000001 -0.000000 0.000001 -0.000001 -0.000000 0.000001 -0.000001 -0.000000 0.000001 -0.000001 0.000000 0.000001 -0.000001 -0.000000 0.000002 0.000000 0.000000 0.000002 0.000000 0.000000 0.000002 0.000000 0.000000 
